#!OML:ASF E:\Style6\Style6.ASF
:FULLY-SPECIFIED
:DEGREES
3128
root 0.606667 16.9085 -1.57165 5.07734 -4.16178 -2.10494
lowerback 15.747 -1.29227 3.7106
upperback 15.7412 -1.54835 2.55048
thorax 8.24595 -0.617511 0.798335
lowerneck 8.75439 -0.672357 1.41241
upperneck -13.5025 -1.72027 -6.77291
head -5.58334 -0.435558 -2.23177
rclavicle 5.56597e-015 2.26615e-014
rhumerus 45.1842 11.5104 -65.4905
rradius 48.7761
rwrist 37.1878
rhand -4.28351 6.9865
rfingers 7.12502
rthumb 21.4817 -21.8424
lclavicle 5.56597e-015 2.26615e-014
lhumerus 43.769 -14.9106 55.9604
lradius 51.6504
lwrist -7.58279
lhand -10.6134 23.0172
lfingers 7.12502
lthumb 15.3929 52.4242
rfemur -37.2468 -10.6139 22.5268
rtibia 47.9484
rfoot -9.35265 -0.421359
rtoes -5.11527
lfemur -35.9812 11.9094 -18.0155
ltibia 52.1953
lfoot -15.2045 0.847457
ltoes -16.8565
3129
root 0.605539 16.9077 -1.57196 5.07026 -4.15092 -2.16888
lowerback 15.739 -1.28611 3.7795
upperback 15.747 -1.53509 2.55755
thorax 8.25692 -0.604454 0.766464
lowerneck 8.74278 -0.685731 1.44744
upperneck -13.4158 -1.7297 -6.7837
head -5.55502 -0.443056 -2.23957
rclavicle -4.37326e-015 -1.51076e-014
rhumerus 45.1772 11.5012 -65.4874
rradius 48.7703
rwrist 37.1398
rhand -4.24536 7.01432
rfingers 7.12502
rthumb 21.5183 -21.8104
lclavicle -4.37326e-015 -1.51076e-014
lhumerus 43.7866 -14.979 55.9251
lradius 51.6837
lwrist -7.5664
lhand -10.6492 22.9835
lfingers 7.12502
lthumb 15.3584 52.3931
rfemur -37.2356 -10.5926 22.5961
rtibia 47.961
rfoot -9.35076 -0.470409
rtoes -5.6889
lfemur -35.9945 11.8855 -17.93
ltibia 52.2188
lfoot -15.1928 0.822125
ltoes -16.5595
3130
root 0.604347 16.9072 -1.57168 5.05465 -4.13652 -2.13455
lowerback 15.72 -1.30755 3.7066
upperback 15.7767 -1.57047 2.51863
thorax 8.3011 -0.626141 0.767854
lowerneck 8.65169 -0.665469 1.57359
upperneck -13.3357 -1.68863 -6.8535
head -5.51379 -0.427622 -2.28486
rclavicle 3.97569e-015 -1.15295e-014
rhumerus 45.2716 11.5892 -65.5241
rradius 48.7622
rwrist 37.0825
rhand -4.20744 7.18579
rfingers 7.12502
rthumb 21.5547 -21.6347
lclavicle 3.97569e-015 -1.15295e-014
lhumerus 43.8018 -14.93 55.8166
lradius 51.6738
lwrist -7.51289
lhand -10.6867 22.9992
lfingers 7.12502
lthumb 15.3223 52.4115
rfemur -37.2314 -10.5976 22.5604
rtibia 47.9894
rfoot -9.36868 -0.517184
rtoes -6.32731
lfemur -35.985 11.8798 -17.9647
ltibia 52.2271
lfoot -15.1579 0.865945
ltoes -16.7759
3131
root 0.603629 16.9056 -1.57099 5.04031 -4.10831 -2.00003
lowerback 15.7182 -1.35264 3.48754
upperback 15.8059 -1.64759 2.45774
thorax 8.33611 -0.681763 0.830538
lowerneck 8.47096 -0.612945 1.73852
upperneck -13.2244 -1.60233 -6.96643
head -5.44577 -0.391241 -2.35307
rclavicle -1.39149e-014 3.33958e-014
rhumerus 45.4365 11.7465 -65.5703
rradius 48.7176
rwrist 37.0421
rhand -4.21633 7.40571
rfingers 7.12502
rthumb 21.5462 -21.4158
lclavicle -1.39149e-014 3.33958e-014
lhumerus 43.7729 -14.7548 55.7333
lradius 51.6282
lwrist -7.52017
lhand -10.6676 22.9174
lfingers 7.12502
lthumb 15.3407 52.3284
rfemur -37.2388 -10.6338 22.4098
rtibia 48.0181
rfoot -9.403 -0.484138
rtoes -5.60959
lfemur -35.9671 11.8019 -18.1097
ltibia 52.2141
lfoot -15.1633 0.980024
ltoes -17.0046
3132
root 0.602897 16.905 -1.57028 4.92019 -4.04311 -2.00361
lowerback 15.849 -1.40915 3.4446
upperback 15.8349 -1.71859 2.44888
thorax 8.30054 -0.721563 0.853587
lowerneck 8.41292 -0.585072 1.8392
upperneck -13.1678 -1.56149 -7.07104
head -5.41754 -0.37115 -2.40515
rclavicle -1.66979e-014 -5.88403e-014
rhumerus 45.5201 11.8921 -65.5542
rradius 48.7042
rwrist 36.9999
rhand -4.2273 7.2974
rfingers 7.12502
rthumb 21.5357 -21.5253
lclavicle -1.66979e-014 -5.88403e-014
lhumerus 43.7297 -14.6842 55.676
lradius 51.6117
lwrist -7.50382
lhand -10.6412 22.8911
lfingers 7.12502
lthumb 15.3661 52.3001
rfemur -37.0945 -10.6948 22.39
rtibia 48.0252
rfoot -9.44577 -0.4701
rtoes -5.24081
lfemur -35.8189 11.7194 -18.0686
ltibia 52.1878
lfoot -15.1692 1.01987
ltoes -17.0714
3133
root 0.60126 16.9077 -1.56944 4.66503 -3.99993 -2.03819
lowerback 16.1048 -1.4395 3.46449
upperback 15.8996 -1.74479 2.44585
thorax 8.24064 -0.733599 0.847109
lowerneck 8.51285 -0.568708 1.79565
upperneck -13.24 -1.54229 -7.0212
head -5.45566 -0.359713 -2.38436
rclavicle 2.42517e-014 -2.46493e-014
rhumerus 45.5408 11.9561 -65.5295
rradius 48.7385
rwrist 36.9511
rhand -4.20294 6.89298
rfingers 7.12502
rthumb 21.5591 -21.927
lclavicle 2.42517e-014 -2.46493e-014
lhumerus 43.7361 -14.6937 55.6236
lradius 51.6167
lwrist -7.51479
lhand -10.5624 22.9476
lfingers 7.12502
lthumb 15.442 52.3508
rfemur -36.781 -10.74 22.3812
rtibia 48.0209
rfoot -9.48099 -0.46145
rtoes -5.1022
lfemur -35.4948 11.6935 -17.9652
ltibia 52.1474
lfoot -15.172 1.01315
ltoes -17.262
3134
root 0.599339 16.9111 -1.56781 4.5259 -3.99109 -2.04023
lowerback 16.2263 -1.44757 3.43119
upperback 15.9308 -1.7531 2.44432
thorax 8.21356 -0.741493 0.867372
lowerneck 8.62806 -0.551735 1.71784
upperneck -13.3345 -1.52188 -6.92546
head -5.50286 -0.34852 -2.34373
rclavicle 1.31198e-014 1.78906e-014
rhumerus 45.637 12.0759 -65.3618
rradius 48.6256
rwrist 36.7523
rhand -4.22742 6.79769
rfingers 7.12502
rthumb 21.5356 -22.025
lclavicle 1.31198e-014 1.78906e-014
lhumerus 43.718 -14.6967 55.6064
lradius 51.5959
lwrist -7.58033
lhand -10.55 22.9227
lfingers 7.12502
lthumb 15.4539 52.325
rfemur -36.6044 -10.7337 22.3559
rtibia 48.0064
rfoot -9.47274 -0.504842
rtoes -5.49037
lfemur -35.3032 11.6782 -17.9218
ltibia 52.1062
lfoot -15.1997 1.00159
ltoes -17.4518
3135
root 0.597092 16.913 -1.56569 4.50958 -3.9834 -1.97436
lowerback 16.2138 -1.43073 3.32382
upperback 15.9272 -1.7415 2.44479
thorax 8.21745 -0.746065 0.926265
lowerneck 8.66453 -0.560575 1.65704
upperneck -13.355 -1.53557 -6.86711
head -5.51544 -0.355216 -2.31444
rclavicle -3.10104e-014 1.94809e-014
rhumerus 45.7709 12.1795 -65.1273
rradius 48.3986
rwrist 36.5226
rhand -4.34312 6.94828
rfingers 7.12502
rthumb 21.4244 -21.8871
lclavicle -3.10104e-014 1.94809e-014
lhumerus 43.6992 -14.7405 55.6105
lradius 51.5975
lwrist -7.6259
lhand -10.7009 22.926
lfingers 7.12502
lthumb 15.3086 52.3394
rfemur -36.5751 -10.7319 22.2792
rtibia 47.9929
rfoot -9.47957 -0.457517
rtoes -4.89049
lfemur -35.265 11.6714 -17.9815
ltibia 52.0719
lfoot -15.1939 0.955188
ltoes -17.0449
3136
root 0.596008 16.9127 -1.5634 4.47822 -3.98214 -1.93915
lowerback 16.2002 -1.42038 3.26572
upperback 15.948 -1.73513 2.44463
thorax 8.25038 -0.748222 0.957623
lowerneck 8.67948 -0.576768 1.58411
upperneck -13.3604 -1.5647 -6.83848
head -5.52051 -0.367471 -2.29123
rclavicle 1.23246e-014 -1.43125e-014
rhumerus 45.7796 12.1263 -65.2247
rradius 48.3848
rwrist 36.652
rhand -4.30582 7.08336
rfingers 7.12502
rthumb 21.4603 -21.748
lclavicle 1.23246e-014 -1.43125e-014
lhumerus 43.7108 -14.7735 55.5764
lradius 51.6068
lwrist -7.61516
lhand -10.7228 22.9915
lfingers 7.12502
lthumb 15.2875 52.4065
rfemur -36.5259 -10.7425 22.239
rtibia 47.9841
rfoot -9.51537 -0.446233
rtoes -5.13797
lfemur -35.2058 11.6571 -18.0112
ltibia 52.0455
lfoot -15.1917 1.00383
ltoes -17.1605
3137
root 0.595491 16.9137 -1.56123 4.44958 -3.96798 -2.01429
lowerback 16.1794 -1.42994 3.3363
upperback 15.9711 -1.74376 2.45485
thorax 8.28824 -0.746002 0.929811
lowerneck 8.758 -0.579364 1.47525
upperneck -13.4084 -1.5744 -6.75111
head -5.54828 -0.370519 -2.24537
rclavicle 0 -3.97569e-016
rhumerus 45.6327 11.999 -65.5579
rradius 48.6123
rwrist 36.8976
rhand -4.01681 7.30673
rfingers 7.12502
rthumb 21.7378 -21.4927
lclavicle 0 -3.97569e-016
lhumerus 43.7456 -14.803 55.5365
lradius 51.5562
lwrist -7.60932
lhand -10.7234 23.0402
lfingers 7.12502
lthumb 15.2869 52.4553
rfemur -36.4561 -10.7335 22.3101
rtibia 47.9677
rfoot -9.56122 -0.446677
rtoes -5.38844
lfemur -35.1447 11.636 -17.9129
ltibia 52.0281
lfoot -15.2045 0.936907
ltoes -16.7448
3138
root 0.594518 16.9151 -1.55954 4.41844 -3.93129 -2.01876
lowerback 16.1412 -1.43729 3.31278
upperback 16.0073 -1.76031 2.47954
thorax 8.35312 -0.757642 0.97033
lowerneck 8.77156 -0.571498 1.33237
upperneck -13.4318 -1.57829 -6.69778
head -5.55705 -0.368261 -2.20477
rclavicle -8.74653e-015 -6.36111e-015
rhumerus 45.619 11.9547 -65.6466
rradius 48.7101
rwrist 36.9711
rhand -3.97708 7.42099
rfingers 7.12502
rthumb 21.776 -21.374
lclavicle -8.74653e-015 -6.36111e-015
lhumerus 43.7795 -14.7799 55.5814
lradius 51.5056
lwrist -7.625
lhand -10.6795 23.0755
lfingers 7.12502
lthumb 15.3292 52.4873
rfemur -36.3991 -10.7311 22.3041
rtibia 47.9535
rfoot -9.56219 -0.518107
rtoes -5.8563
lfemur -35.0927 11.6036 -17.8996
ltibia 52.0018
lfoot -15.1795 0.920291
ltoes -16.8786
3139
root 0.593008 16.9164 -1.55752 4.38108 -3.91471 -1.98232
lowerback 16.1172 -1.42815 3.24598
upperback 16.0469 -1.75781 2.48442
thorax 8.41425 -0.76272 1.01218
lowerneck 8.73281 -0.568635 1.25131
upperneck -13.4144 -1.58273 -6.68149
head -5.54469 -0.368523 -2.18569
rclavicle -3.18055e-014 -1.35174e-014
rhumerus 45.6782 11.9367 -65.6139
rradius 48.7073
rwrist 36.9248
rhand -4.07003 7.32751
rfingers 7.12502
rthumb 21.6867 -21.4778
lclavicle -3.18055e-014 -1.35174e-014
lhumerus 43.809 -14.7778 55.637
lradius 51.46
lwrist -7.68525
lhand -10.6343 23.1196
lfingers 7.12502
lthumb 15.3728 52.5281
rfemur -36.3383 -10.7186 22.2538
rtibia 47.9332
rfoot -9.54263 -0.539151
rtoes -5.67862
lfemur -35.0342 11.5627 -17.9237
ltibia 51.9748
lfoot -15.1943 0.953485
ltoes -17.0338
